<?xml version="1.0" encoding="utf-8"?>
<!-- Generator: Adobe Illustrator 14.0.0, SVG Export Plug-In . SVG Version: 6.00 Build 43363)  -->
<!DOCTYPE svg PUBLIC "-//W3C//DTD SVG 1.1//EN" "http://www.w3.org/Graphics/SVG/1.1/DTD/svg11.dtd">
<svg version="1.1" id="Camada_1" xmlns="http://www.w3.org/2000/svg" xmlns:xlink="http://www.w3.org/1999/xlink" x="0px" y="0px"
	 width="15.296px" height="10.211px" viewBox="0 0 15.296 10.211" enable-background="new 0 0 15.296 10.211" xml:space="preserve">
<g>
	<path fill="#EDEDED" d="M-1.645,0.879v1.132c0,0.674-0.549,1.226-1.227,1.226h-1.084c-0.277,0-0.504-0.226-0.504-0.503V0.155
		c0-0.257,0.195-0.466,0.443-0.496c-0.551-2.276-2.598-3.973-5.042-3.973c-2.442,0-4.49,1.697-5.041,3.973
		c0.247,0.029,0.441,0.239,0.441,0.496v2.579c0,0.277-0.226,0.503-0.501,0.503h-1.087c-0.677,0-1.226-0.552-1.226-1.226V0.879
		c0-0.677,0.549-1.226,1.226-1.226h0.113c0.571-2.832,3.077-4.973,6.074-4.973c3,0,5.505,2.141,6.076,4.973h0.113
		C-2.193-0.348-1.645,0.203-1.645,0.879L-1.645,0.879z M-7.818,2.832c-0.141,0.223-0.426,0.377-0.76,0.377
		c-0.474,0-0.857-0.306-0.857-0.686c0-0.378,0.383-0.685,0.857-0.685c0.334,0,0.619,0.153,0.76,0.376h2.061
		c0.168-0.411,0.262-0.861,0.262-1.335c0-1.968-1.594-3.563-3.562-3.563c-1.967,0-3.563,1.595-3.563,3.563s1.596,3.563,3.563,3.563
		c1.246,0,2.341-0.642,2.98-1.608h-1.74V2.832z M-7.543,3.266"/>
</g>
<g>
	<g>
		<path fill="#EDEDED" d="M7.358,5.368c1.101,0,1.992-1.044,1.992-2.332c0-1.786-0.892-2.332-1.992-2.332S5.366,1.25,5.366,3.036
			C5.366,4.324,6.257,5.368,7.358,5.368L7.358,5.368z M7.358,5.368"/>
		<path fill="#EDEDED" d="M11.757,8.801l-1.005-2.265c-0.046-0.104-0.127-0.189-0.228-0.242l-1.56-0.812
			C8.931,5.464,8.889,5.468,8.858,5.491c-0.441,0.334-0.96,0.51-1.5,0.51s-1.059-0.176-1.5-0.51C5.827,5.468,5.785,5.464,5.75,5.482
			l-1.56,0.812C4.09,6.347,4.009,6.433,3.963,6.536L2.958,8.801C2.889,8.957,2.903,9.135,2.997,9.278
			c0.093,0.144,0.25,0.229,0.421,0.229h7.881c0.171,0,0.328-0.085,0.421-0.229C11.813,9.135,11.827,8.957,11.757,8.801L11.757,8.801
			z M11.757,8.801"/>
	</g>
</g>
</svg>
