<?xml version="1.0" encoding="utf-8"?>
<!-- Generator: Adobe Illustrator 14.0.0, SVG Export Plug-In . SVG Version: 6.00 Build 43363)  -->
<!DOCTYPE svg PUBLIC "-//W3C//DTD SVG 1.1//EN" "http://www.w3.org/Graphics/SVG/1.1/DTD/svg11.dtd">
<svg version="1.1" id="Camada_1" xmlns="http://www.w3.org/2000/svg" xmlns:xlink="http://www.w3.org/1999/xlink" x="0px" y="0px"
	 width="15.296px" height="10.211px" viewBox="0 0 15.296 10.211" enable-background="new 0 0 15.296 10.211" xml:space="preserve">
<g>
	<path fill="#EDEDED" d="M-4.141-1.014v1.132c0,0.674-0.549,1.226-1.227,1.226h-1.084c-0.277,0-0.504-0.226-0.504-0.503v-2.579
		c0-0.257,0.195-0.466,0.443-0.496C-7.063-4.51-9.11-6.207-11.555-6.207c-2.442,0-4.49,1.697-5.041,3.973
		c0.247,0.029,0.441,0.239,0.441,0.496v2.579c0,0.277-0.226,0.503-0.501,0.503h-1.087c-0.677,0-1.226-0.552-1.226-1.226v-1.132
		c0-0.677,0.549-1.226,1.226-1.226h0.113c0.571-2.832,3.077-4.973,6.074-4.973c3,0,5.505,2.141,6.076,4.973h0.113
		C-4.69-2.241-4.141-1.69-4.141-1.014L-4.141-1.014z M-10.315,0.938c-0.141,0.223-0.426,0.377-0.76,0.377
		c-0.474,0-0.857-0.306-0.857-0.686c0-0.378,0.383-0.685,0.857-0.685c0.334,0,0.619,0.153,0.76,0.376h2.061
		C-8.086-0.09-7.993-0.54-7.993-1.014c0-1.968-1.594-3.563-3.562-3.563c-1.967,0-3.563,1.595-3.563,3.563s1.596,3.563,3.563,3.563
		c1.246,0,2.341-0.642,2.98-1.608h-1.74V0.938z M-10.04,1.373"/>
</g>
<g>
	<g>
		<path fill="#EDEDED" d="M30.593,1.667c1.101,0,1.992-1.044,1.992-2.332c0-1.786-0.892-2.332-1.992-2.332s-1.992,0.546-1.992,2.332
			C28.601,0.623,29.493,1.667,30.593,1.667L30.593,1.667z M30.593,1.667"/>
		<path fill="#EDEDED" d="M34.993,5.1l-1.005-2.265c-0.046-0.104-0.127-0.189-0.228-0.242l-1.56-0.812
			c-0.034-0.018-0.076-0.015-0.107,0.009c-0.441,0.334-0.96,0.51-1.5,0.51s-1.059-0.176-1.5-0.51
			c-0.031-0.023-0.073-0.027-0.107-0.009l-1.56,0.812c-0.101,0.053-0.182,0.139-0.228,0.242L26.194,5.1
			c-0.069,0.156-0.056,0.334,0.038,0.478c0.093,0.144,0.25,0.229,0.421,0.229h7.881c0.171,0,0.328-0.085,0.421-0.229
			C35.048,5.434,35.062,5.256,34.993,5.1L34.993,5.1z M34.993,5.1"/>
	</g>
</g>
<g>
	<path fill="#EDEDED" d="M10.251,2.506V0.891c0-0.257-0.21-0.468-0.468-0.468H4.012c-0.257,0-0.469,0.21-0.469,0.468v6.616
		c0,0.171,0.102,0.335,0.25,0.413L7.35,9.762C7.506,9.839,7.694,9.73,7.694,9.551V7.756h2.09c0.258,0,0.468-0.21,0.468-0.468v-2.56
		H9.317v1.857c0,0.133-0.102,0.235-0.234,0.235H7.702V2.849c0-0.171-0.102-0.334-0.25-0.412L5.353,1.359h3.729
		c0.133,0,0.234,0.102,0.234,0.234v0.921h0.935V2.506z M10.251,2.506"/>
	<path fill="#EDEDED" d="M11.454,1.742l1.522,1.521c0.194,0.194,0.194,0.483,0,0.678l-1.522,1.521
		c-0.195,0.195-0.492,0.203-0.687,0.008c-0.187-0.188-0.163-0.5,0.016-0.688l0.687-0.678h-2.66c-0.131,0-0.266-0.055-0.351-0.156
		C8.241,3.715,8.294,3.302,8.576,3.146c0.069-0.04,0.155-0.063,0.233-0.063h2.66c0,0-0.678-0.679-0.687-0.679
		c-0.179-0.179-0.202-0.5-0.016-0.679C10.956,1.539,11.258,1.546,11.454,1.742L11.454,1.742z M11.454,1.742"/>
</g>
</svg>
