<?xml version="1.0" encoding="utf-8"?>
<!-- Generator: Adobe Illustrator 14.0.0, SVG Export Plug-In . SVG Version: 6.00 Build 43363)  -->
<!DOCTYPE svg PUBLIC "-//W3C//DTD SVG 1.1//EN" "http://www.w3.org/Graphics/SVG/1.1/DTD/svg11.dtd">
<svg version="1.1" id="Camada_1" xmlns="http://www.w3.org/2000/svg" xmlns:xlink="http://www.w3.org/1999/xlink" x="0px" y="0px"
	 width="15.296px" height="10.211px" viewBox="0 0 15.296 10.211" enable-background="new 0 0 15.296 10.211" xml:space="preserve">
<g>
	<path fill="#EDEDED" d="M15.296,6.424v1.132c0,0.674-0.549,1.226-1.227,1.226h-1.084c-0.277,0-0.504-0.226-0.504-0.503V5.699
		c0-0.257,0.195-0.466,0.443-0.496C12.375,2.928,10.328,1.23,7.883,1.23c-2.442,0-4.49,1.697-5.041,3.973
		c0.247,0.029,0.441,0.239,0.441,0.496v2.579c0,0.277-0.226,0.503-0.501,0.503H1.695c-0.677,0-1.226-0.552-1.226-1.226V6.424
		c0-0.677,0.549-1.226,1.226-1.226h0.113C2.38,2.366,4.886,0.225,7.883,0.225c3,0,5.505,2.141,6.076,4.973h0.113
		C14.748,5.196,15.296,5.747,15.296,6.424L15.296,6.424z M9.123,8.376c-0.141,0.223-0.426,0.377-0.76,0.377
		c-0.474,0-0.857-0.306-0.857-0.686c0-0.378,0.383-0.685,0.857-0.685c0.334,0,0.619,0.153,0.76,0.376h2.061
		c0.168-0.411,0.262-0.861,0.262-1.335c0-1.968-1.594-3.563-3.562-3.563c-1.967,0-3.563,1.595-3.563,3.563s1.596,3.563,3.563,3.563
		c1.246,0,2.341-0.642,2.98-1.608h-1.74V8.376z M9.398,8.811"/>
</g>
<g>
	<g>
		<path fill="#EDEDED" d="M30.593,1.667c1.101,0,1.992-1.044,1.992-2.332c0-1.786-0.892-2.332-1.992-2.332s-1.992,0.546-1.992,2.332
			C28.601,0.623,29.493,1.667,30.593,1.667L30.593,1.667z M30.593,1.667"/>
		<path fill="#EDEDED" d="M34.993,5.1l-1.005-2.265c-0.046-0.104-0.127-0.189-0.228-0.242l-1.56-0.812
			c-0.034-0.018-0.076-0.015-0.107,0.009c-0.441,0.334-0.96,0.51-1.5,0.51s-1.059-0.176-1.5-0.51
			c-0.031-0.023-0.073-0.027-0.107-0.009l-1.56,0.812c-0.101,0.053-0.182,0.139-0.228,0.242L26.194,5.1
			c-0.069,0.156-0.056,0.334,0.038,0.478c0.093,0.144,0.25,0.229,0.421,0.229h7.881c0.171,0,0.328-0.085,0.421-0.229
			C35.048,5.434,35.062,5.256,34.993,5.1L34.993,5.1z M34.993,5.1"/>
	</g>
</g>
</svg>
