<?xml version="1.0" encoding="utf-8"?>
<!-- Generator: Adobe Illustrator 14.0.0, SVG Export Plug-In . SVG Version: 6.00 Build 43363)  -->
<!DOCTYPE svg PUBLIC "-//W3C//DTD SVG 1.1//EN" "http://www.w3.org/Graphics/SVG/1.1/DTD/svg11.dtd">
<svg version="1.1" id="Camada_1" xmlns="http://www.w3.org/2000/svg" xmlns:xlink="http://www.w3.org/1999/xlink" x="0px" y="0px"
	 width="30.356px" height="30.362px" viewBox="0 0 30.356 30.362" enable-background="new 0 0 30.356 30.362" xml:space="preserve">
<path fill="#DDDDDD" d="M29.25,26.016l-5.938-5.939c-0.222-0.113-0.222-0.439-0.108-0.66c1.208-1.869,1.869-4.07,1.869-6.487
	c0-6.712-5.392-12.099-12.099-12.099c-6.708,0-12.1,5.386-12.1,12.099c0,6.708,5.392,12.094,12.1,12.094
	c2.422,0,4.617-0.661,6.487-1.87c0.22-0.106,0.439-0.106,0.66,0.113l5.939,5.94c0.44,0.435,1.1,0.435,1.541,0l1.541-1.542
	C29.577,27.224,29.577,26.563,29.25,26.016z M12.973,20.737c-4.254,0-7.701-3.447-7.701-7.701c0-4.253,3.447-7.701,7.701-7.701
	c4.253,0,7.701,3.448,7.701,7.701C20.674,17.29,17.226,20.737,12.973,20.737z"/>
</svg>
