<?xml version="1.0" encoding="utf-8"?>
<!-- Generator: Adobe Illustrator 14.0.0, SVG Export Plug-In . SVG Version: 6.00 Build 43363)  -->
<!DOCTYPE svg PUBLIC "-//W3C//DTD SVG 1.1//EN" "http://www.w3.org/Graphics/SVG/1.1/DTD/svg11.dtd">
<svg version="1.1" id="Camada_1" xmlns="http://www.w3.org/2000/svg" xmlns:xlink="http://www.w3.org/1999/xlink" x="0px" y="0px"
	 width="124.738px" height="119.422px" viewBox="0 0 124.738 119.422" enable-background="new 0 0 124.738 119.422"
	 xml:space="preserve">
<g>
	<g>
		<path fill="#FFFFFF" d="M91.935-98.533l-59.127-0.006c-1.199,0-2.17,0.972-2.171,2.17l-0.005,40.822
			c0,1.197,0.973,2.17,2.169,2.17l59.129,0.006c1.197,0,2.17-0.973,2.17-2.17l0.004-40.822
			C94.105-97.562,93.133-98.533,91.935-98.533L91.935-98.533z M86.396-94.193L62.369-71.958l-24.021-22.24L86.396-94.193z
			 M34.977-91.402l8.605,7.968l-8.607,8.146L34.977-91.402z M89.761-57.711l-54.787-0.006l0.001-11.594l11.801-11.167l14.118,13.07
			c0.417,0.385,0.945,0.578,1.475,0.578s1.058-0.193,1.474-0.576l14.121-13.07l11.799,11.169L89.761-57.711z M89.763-75.283
			l-8.607-8.148l8.608-7.966L89.763-75.283z"/>
		<path fill="#CECECE" d="M40.192-110.682l9.115,0.001v5.96c0,1.198,0.971,2.17,2.17,2.17l21.79,0.002c1.198,0,2.17-0.972,2.17-2.17
			l0.001-5.961l9.115,0.001c0,0,0.002,0,0.003,0c1.198,0,2.17-0.972,2.17-2.17c0-0.784-0.416-1.472-1.04-1.853l-22.099-14.926
			c-0.733-0.496-1.694-0.496-2.429,0L38.978-114.65c-0.791,0.534-1.141,1.521-0.861,2.434
			C38.396-111.305,39.238-110.682,40.192-110.682L40.192-110.682z M62.374-125.211l15.088,10.192h-4.193
			c-1.199,0-2.17,0.972-2.17,2.169v5.961l-17.45-0.001l0.001-5.961c0-1.198-0.973-2.17-2.17-2.17h-4.194L62.374-125.211z"/>
	</g>
</g>
<g>
	<path fill="#EDECE8" d="M36.07,21.66c-6.48,0-11.752,5.272-11.752,11.752S29.59,45.164,36.07,45.164s11.752-5.271,11.752-11.751
		S42.55,21.66,36.07,21.66L36.07,21.66z M36.07,42.699c-5.121,0-9.287-4.166-9.287-9.287c0-5.121,4.166-9.287,9.287-9.287
		c5.121,0,9.286,4.166,9.286,9.287C45.356,38.534,41.191,42.699,36.07,42.699L36.07,42.699z M36.07,42.699"/>
	<path fill="#EDECE8" d="M36.07,47.959c-6.48,0-11.752,5.271-11.752,11.752S29.59,71.463,36.07,71.463s11.752-5.271,11.752-11.752
		S42.55,47.959,36.07,47.959L36.07,47.959z M36.07,68.998c-5.121,0-9.287-4.166-9.287-9.287c0-5.12,4.166-9.286,9.287-9.286
		c5.121,0,9.286,4.166,9.286,9.286C45.356,64.832,41.191,68.998,36.07,68.998L36.07,68.998z M36.07,68.998"/>
	<path fill="#EDECE8" d="M36.07,74.258c-6.48,0-11.752,5.271-11.752,11.752S29.59,97.762,36.07,97.762S47.822,92.49,47.822,86.01
		S42.55,74.258,36.07,74.258L36.07,74.258z M36.07,95.297c-5.121,0-9.287-4.166-9.287-9.287s4.166-9.287,9.287-9.287
		c5.121,0,9.286,4.166,9.286,9.287S41.191,95.297,36.07,95.297L36.07,95.297z M36.07,95.297"/>
	<path fill="#EDECE8" d="M39.143,29.911l-4.388,4.389l-1.759-1.758c-0.481-0.482-1.261-0.482-1.743,0
		c-0.482,0.481-0.482,1.263,0,1.743l2.63,2.63c0.241,0.241,0.556,0.361,0.872,0.361s0.631-0.121,0.872-0.361l5.26-5.26
		c0.481-0.481,0.481-1.262,0-1.744C40.406,29.429,39.625,29.429,39.143,29.911L39.143,29.911z M39.143,29.911"/>
	<path fill="#EDECE8" d="M39.143,56.209l-4.388,4.389l-1.759-1.758c-0.481-0.482-1.261-0.482-1.743,0
		c-0.482,0.481-0.482,1.262,0,1.742l2.63,2.631c0.241,0.24,0.556,0.361,0.872,0.361s0.631-0.121,0.872-0.361l5.26-5.26
		c0.481-0.48,0.481-1.262,0-1.744C40.406,55.729,39.625,55.729,39.143,56.209L39.143,56.209z M39.143,56.209"/>
	<path fill="#CECECE" d="M53.164,30.701h23.67c0.681,0,1.232-0.552,1.232-1.233s-0.552-1.233-1.232-1.233h-23.67
		c-0.681,0-1.232,0.552-1.232,1.233S52.483,30.701,53.164,30.701L53.164,30.701z M53.164,30.701"/>
	<path fill="#CECECE" d="M53.164,38.59h46.022c0.682,0,1.233-0.551,1.233-1.233c0-0.68-0.552-1.233-1.233-1.233H53.164
		c-0.681,0-1.232,0.553-1.232,1.233C51.931,38.039,52.483,38.59,53.164,38.59L53.164,38.59z M53.164,38.59"/>
	<path fill="#CECECE" d="M53.164,56.999h23.67c0.681,0,1.232-0.552,1.232-1.232s-0.552-1.233-1.232-1.233h-23.67
		c-0.681,0-1.232,0.553-1.232,1.233S52.483,56.999,53.164,56.999L53.164,56.999z M53.164,56.999"/>
	<path fill="#CECECE" d="M99.186,62.423H53.164c-0.681,0-1.232,0.552-1.232,1.233s0.552,1.232,1.232,1.232h46.022
		c0.682,0,1.233-0.551,1.233-1.232S99.868,62.423,99.186,62.423L99.186,62.423z M99.186,62.423"/>
	<path fill="#CECECE" d="M53.164,83.298h23.67c0.681,0,1.232-0.552,1.232-1.233c0-0.68-0.552-1.232-1.232-1.232h-23.67
		c-0.681,0-1.232,0.553-1.232,1.232C51.931,82.746,52.483,83.298,53.164,83.298L53.164,83.298z M53.164,83.298"/>
	<path fill="#CECECE" d="M99.186,88.722H53.164c-0.681,0-1.232,0.552-1.232,1.233c0,0.681,0.552,1.232,1.232,1.232h46.022
		c0.682,0,1.233-0.552,1.233-1.232C100.42,89.273,99.868,88.722,99.186,88.722L99.186,88.722z M99.186,88.722"/>
</g>
</svg>
